<svg xmlns="http://www.w3.org/2000/svg"  data-asbj="true" data-qa="code" aria-hidden="true" viewBox="0 0 20 20" class=""><path fill="currentColor" fill-rule="evenodd" d="M12.058 3.212c.396.12.62.54.5.936L8.87 16.29a.75.75 0 1 1-1.435-.436l3.686-12.143a.75.75 0 0 1 .936-.5M5.472 6.24a.75.75 0 0 1 .005 1.06l-2.67 2.693 2.67 2.691a.75.75 0 1 1-1.065 1.057l-3.194-3.22a.75.75 0 0 1 0-1.056l3.194-3.22a.75.75 0 0 1 1.06-.005m9.044 1.06a.75.75 0 1 1 1.065-1.056l3.194 3.221a.75.75 0 0 1 0 1.057l-3.194 3.219a.75.75 0 0 1-1.065-1.057l2.67-2.69z" clip-rule="evenodd"></path></svg>