<svg xmlns="http://www.w3.org/2000/svg" data-02oi="true" data-qa="sidebar-channel-icon-prefix" aria-hidden="true" data-sidebar-channel-icon="lock" viewBox="0 0 20 20" class="" style="--s: 16px;"><path fill="currentColor" fill-rule="evenodd" d="M10 1.5A4.5 4.5 0 0 0 5.5 6v1.5h-.25A2.25 2.25 0 0 0 3 9.75v6.5c0 .966.784 1.75 1.75 1.75h10.5A1.75 1.75 0 0 0 17 16.25v-6.5a2.25 2.25 0 0 0-2.25-2.25h-.25V6A4.5 4.5 0 0 0 10 1.5m3 6V6a3 3 0 1 0-6 0v1.5zM4.5 9.75A.75.75 0 0 1 5.25 9h9.5a.75.75 0 0 1 .75.75v6.5a.25.25 0 0 1-.25.25H4.75a.25.25 0 0 1-.25-.25z" clip-rule="evenodd"></path></svg>